<svg xmlns="http://www.w3.org/2000/svg" xmlns:xlink="http://www.w3.org/1999/xlink" contentStyleType="text/css" data-diagram-type="SEQUENCE" height="886px" preserveAspectRatio="none" style="width:1594px;height:886px;background:#FFFFFF;" version="1.1" viewBox="0 0 1594 886" width="1594px" zoomAndPan="magnify"><defs/><g><rect fill="none" height="104.5313" style="stroke:#000000;stroke-width:1.5;" width="692.4395" x="20" y="198.6953"/><rect fill="none" height="471.125" style="stroke:#000000;stroke-width:1.5;" width="1578.5269" x="10" y="317.2266"/><rect fill="none" height="104.5313" style="stroke:#000000;stroke-width:1.5;" width="1162.1992" x="20" y="676.8203"/><g><title>Gebruiker</title><rect fill="#000000" fill-opacity="0.00000" height="724.0547" width="8" x="63.6719" y="81.2969"/><line style="stroke:#181818;stroke-width:0.5;stroke-dasharray:5.0,5.0;" x1="67" x2="67" y1="81.2969" y2="805.3516"/></g><g><title>Product Owner</title><rect fill="#000000" fill-opacity="0.00000" height="724.0547" width="8" x="416.3726" y="81.2969"/><line style="stroke:#181818;stroke-width:0.5;stroke-dasharray:5.0,5.0;" x1="419.4365" x2="419.4365" y1="81.2969" y2="805.3516"/></g><g><title>Stuur Groep</title><rect fill="#000000" fill-opacity="0.00000" height="724.0547" width="8" x="652.9404" y="81.2969"/><line style="stroke:#181818;stroke-width:0.5;stroke-dasharray:5.0,5.0;" x1="656.4414" x2="656.4414" y1="81.2969" y2="805.3516"/></g><g><title>Development Partij</title><rect fill="#000000" fill-opacity="0.00000" height="724.0547" width="8" x="778.811" y="81.2969"/><line style="stroke:#181818;stroke-width:0.5;stroke-dasharray:5.0,5.0;" x1="782.4395" x2="782.4395" y1="81.2969" y2="805.3516"/></g><g><title>Beheer Partij</title><rect fill="#000000" fill-opacity="0.00000" height="724.0547" width="8" x="1119.9146" y="81.2969"/><line style="stroke:#181818;stroke-width:0.5;stroke-dasharray:5.0,5.0;" x1="1123.6299" x2="1123.6299" y1="81.2969" y2="805.3516"/></g><g class="participant participant-head" data-participant="Gebruiker"><text fill="#000000" font-family="sans-serif" font-size="14" lengthAdjust="spacing" textLength="69.3438" x="30" y="77.9951">Gebruiker</text><ellipse cx="67.6719" cy="13.5" fill="#E2E2F0" rx="8" ry="8" style="stroke:#181818;stroke-width:0.5;"/><path d="M67.6719,21.5 L67.6719,48.5 M54.6719,29.5 L80.6719,29.5 M67.6719,48.5 L54.6719,63.5 M67.6719,48.5 L80.6719,63.5" fill="none" style="stroke:#181818;stroke-width:0.5;"/></g><g class="participant participant-tail" data-participant="Gebruiker"><text fill="#000000" font-family="sans-serif" font-size="14" lengthAdjust="spacing" textLength="69.3438" x="30" y="817.3467">Gebruiker</text><ellipse cx="67.6719" cy="829.1484" fill="#E2E2F0" rx="8" ry="8" style="stroke:#181818;stroke-width:0.5;"/><path d="M67.6719,837.1484 L67.6719,864.1484 M54.6719,845.1484 L80.6719,845.1484 M67.6719,864.1484 L54.6719,879.1484 M67.6719,864.1484 L80.6719,879.1484" fill="none" style="stroke:#181818;stroke-width:0.5;"/></g><g class="participant participant-head" data-participant="ProductOwner"><text fill="#000000" font-family="sans-serif" font-size="14" lengthAdjust="spacing" textLength="103.8721" x="365.4365" y="77.9951">Product Owner</text><ellipse cx="420.3726" cy="13.5" fill="#E2E2F0" rx="8" ry="8" style="stroke:#181818;stroke-width:0.5;"/><path d="M420.3726,21.5 L420.3726,48.5 M407.3726,29.5 L433.3726,29.5 M420.3726,48.5 L407.3726,63.5 M420.3726,48.5 L433.3726,63.5" fill="none" style="stroke:#181818;stroke-width:0.5;"/></g><g class="participant participant-tail" data-participant="ProductOwner"><text fill="#000000" font-family="sans-serif" font-size="14" lengthAdjust="spacing" textLength="103.8721" x="365.4365" y="817.3467">Product Owner</text><ellipse cx="420.3726" cy="829.1484" fill="#E2E2F0" rx="8" ry="8" style="stroke:#181818;stroke-width:0.5;"/><path d="M420.3726,837.1484 L420.3726,864.1484 M407.3726,845.1484 L433.3726,845.1484 M420.3726,864.1484 L407.3726,879.1484 M420.3726,864.1484 L433.3726,879.1484" fill="none" style="stroke:#181818;stroke-width:0.5;"/></g><g class="participant participant-head" data-participant="ProductSturingGroep"><text fill="#000000" font-family="sans-serif" font-size="14" lengthAdjust="spacing" textLength="84.998" x="611.4414" y="77.9951">Stuur Groep</text><ellipse cx="656.9404" cy="13.5" fill="#E2E2F0" rx="8" ry="8" style="stroke:#181818;stroke-width:0.5;"/><path d="M656.9404,21.5 L656.9404,48.5 M643.9404,29.5 L669.9404,29.5 M656.9404,48.5 L643.9404,63.5 M656.9404,48.5 L669.9404,63.5" fill="none" style="stroke:#181818;stroke-width:0.5;"/></g><g class="participant participant-tail" data-participant="ProductSturingGroep"><text fill="#000000" font-family="sans-serif" font-size="14" lengthAdjust="spacing" textLength="84.998" x="611.4414" y="817.3467">Stuur Groep</text><ellipse cx="656.9404" cy="829.1484" fill="#E2E2F0" rx="8" ry="8" style="stroke:#181818;stroke-width:0.5;"/><path d="M656.9404,837.1484 L656.9404,864.1484 M643.9404,845.1484 L669.9404,845.1484 M656.9404,864.1484 L643.9404,879.1484 M656.9404,864.1484 L669.9404,879.1484" fill="none" style="stroke:#181818;stroke-width:0.5;"/></g><g class="participant participant-head" data-participant="Ontwikkelingspartij"><text fill="#000000" font-family="sans-serif" font-size="14" lengthAdjust="spacing" textLength="134.7432" x="712.4395" y="77.9951">Development Partij</text><ellipse cx="782.811" cy="13.5" fill="#E2E2F0" rx="8" ry="8" style="stroke:#181818;stroke-width:0.5;"/><path d="M782.811,21.5 L782.811,48.5 M769.811,29.5 L795.811,29.5 M782.811,48.5 L769.811,63.5 M782.811,48.5 L795.811,63.5" fill="none" style="stroke:#181818;stroke-width:0.5;"/></g><g class="participant participant-tail" data-participant="Ontwikkelingspartij"><text fill="#000000" font-family="sans-serif" font-size="14" lengthAdjust="spacing" textLength="134.7432" x="712.4395" y="817.3467">Development Partij</text><ellipse cx="782.811" cy="829.1484" fill="#E2E2F0" rx="8" ry="8" style="stroke:#181818;stroke-width:0.5;"/><path d="M782.811,837.1484 L782.811,864.1484 M769.811,845.1484 L795.811,845.1484 M782.811,864.1484 L769.811,879.1484 M782.811,864.1484 L795.811,879.1484" fill="none" style="stroke:#181818;stroke-width:0.5;"/></g><g class="participant participant-head" data-participant="Beheerderspartij"><text fill="#000000" font-family="sans-serif" font-size="14" lengthAdjust="spacing" textLength="90.5693" x="1075.6299" y="77.9951">Beheer Partij</text><ellipse cx="1123.9146" cy="13.5" fill="#E2E2F0" rx="8" ry="8" style="stroke:#181818;stroke-width:0.5;"/><path d="M1123.9146,21.5 L1123.9146,48.5 M1110.9146,29.5 L1136.9146,29.5 M1123.9146,48.5 L1110.9146,63.5 M1123.9146,48.5 L1136.9146,63.5" fill="none" style="stroke:#181818;stroke-width:0.5;"/></g><g class="participant participant-tail" data-participant="Beheerderspartij"><text fill="#000000" font-family="sans-serif" font-size="14" lengthAdjust="spacing" textLength="90.5693" x="1075.6299" y="817.3467">Beheer Partij</text><ellipse cx="1123.9146" cy="829.1484" fill="#E2E2F0" rx="8" ry="8" style="stroke:#181818;stroke-width:0.5;"/><path d="M1123.9146,837.1484 L1123.9146,864.1484 M1110.9146,845.1484 L1136.9146,845.1484 M1123.9146,864.1484 L1110.9146,879.1484 M1123.9146,864.1484 L1136.9146,879.1484" fill="none" style="stroke:#181818;stroke-width:0.5;"/></g><g class="message" data-participant-1="Gebruiker" data-participant-2="ProductOwner"><polygon fill="#181818" points="408.3726,108.4297,418.3726,112.4297,408.3726,116.4297,412.3726,112.4297" style="stroke:#181818;stroke-width:1;"/><line style="stroke:#181818;stroke-width:1;" x1="67.6719" x2="414.3726" y1="112.4297" y2="112.4297"/><text fill="#000000" font-family="sans-serif" font-size="13" lengthAdjust="spacing" textLength="267.3252" x="74.6719" y="107.3638">Maakt feature-aanvraag via GitHub issue</text></g><g class="message" data-participant-1="ProductOwner" data-participant-2="ProductOwner"><line style="stroke:#181818;stroke-width:1;" x1="420.3726" x2="462.3726" y1="141.5625" y2="141.5625"/><line style="stroke:#181818;stroke-width:1;" x1="462.3726" x2="462.3726" y1="141.5625" y2="154.5625"/><line style="stroke:#181818;stroke-width:1;" x1="421.3726" x2="462.3726" y1="154.5625" y2="154.5625"/><polygon fill="#181818" points="431.3726,150.5625,421.3726,154.5625,431.3726,158.5625,427.3726,154.5625" style="stroke:#181818;stroke-width:1;"/><text fill="#000000" font-family="sans-serif" font-size="13" lengthAdjust="spacing" textLength="222.5679" x="427.3726" y="136.4966">Keurt feature-aanvraag goed of af</text></g><g class="message" data-participant-1="ProductOwner" data-participant-2="Gebruiker"><polygon fill="#181818" points="78.6719,179.6953,68.6719,183.6953,78.6719,187.6953,74.6719,183.6953" style="stroke:#181818;stroke-width:1;"/><line style="stroke:#181818;stroke-width:1;" x1="72.6719" x2="419.3726" y1="183.6953" y2="183.6953"/><text fill="#000000" font-family="sans-serif" font-size="13" lengthAdjust="spacing" textLength="328.7007" x="84.6719" y="178.6294">Informeert beslissing (goedgekeurd of afgewezen)</text></g><path d="M20,198.6953 L84.4429,198.6953 L84.4429,205.8281 L74.4429,215.8281 L20,215.8281 L20,198.6953" fill="#EEEEEE" style="stroke:#000000;stroke-width:1.5;"/><rect fill="none" height="104.5313" style="stroke:#000000;stroke-width:1.5;" width="692.4395" x="20" y="198.6953"/><text fill="#000000" font-family="sans-serif" font-size="13" font-weight="bold" lengthAdjust="spacing" textLength="19.4429" x="35" y="211.7622">alt</text><text fill="#000000" font-family="sans-serif" font-size="11" font-weight="bold" lengthAdjust="spacing" textLength="191.6729" x="99.4429" y="210.9058">[Feature-aanvraag afgewezen]</text><g class="message" data-participant-1="Gebruiker" data-participant-2="ProductSturingGroep"><polygon fill="#181818" points="644.9404,232.9609,654.9404,236.9609,644.9404,240.9609,648.9404,236.9609" style="stroke:#181818;stroke-width:1;"/><line style="stroke:#181818;stroke-width:1;" x1="67.6719" x2="650.9404" y1="236.9609" y2="236.9609"/><text fill="#000000" font-family="sans-serif" font-size="13" lengthAdjust="spacing" textLength="301.228" x="74.6719" y="231.895">Vraagt eventueel om de beslissing te overrule</text></g><g class="message" data-participant-1="ProductSturingGroep" data-participant-2="ProductOwner"><polygon fill="#181818" points="431.3726,262.0938,421.3726,266.0938,431.3726,270.0938,427.3726,266.0938" style="stroke:#181818;stroke-width:1;"/><line style="stroke:#181818;stroke-width:1;" x1="425.3726" x2="655.9404" y1="266.0938" y2="266.0938"/><text fill="#000000" font-family="sans-serif" font-size="13" lengthAdjust="spacing" textLength="124.2236" x="437.3726" y="261.0278">Bespreekt overrule</text></g><g class="message" data-participant-1="ProductSturingGroep" data-participant-2="Gebruiker"><polygon fill="#181818" points="78.6719,291.2266,68.6719,295.2266,78.6719,299.2266,74.6719,295.2266" style="stroke:#181818;stroke-width:1;"/><line style="stroke:#181818;stroke-width:1;" x1="72.6719" x2="655.9404" y1="295.2266" y2="295.2266"/><text fill="#000000" font-family="sans-serif" font-size="13" lengthAdjust="spacing" textLength="328.7007" x="84.6719" y="290.1606">Informeert beslissing (goedgekeurd of afgewezen)</text></g><path d="M10,317.2266 L74.4429,317.2266 L74.4429,324.3594 L64.4429,334.3594 L10,334.3594 L10,317.2266" fill="#EEEEEE" style="stroke:#000000;stroke-width:1.5;"/><rect fill="none" height="471.125" style="stroke:#000000;stroke-width:1.5;" width="1578.5269" x="10" y="317.2266"/><text fill="#000000" font-family="sans-serif" font-size="13" font-weight="bold" lengthAdjust="spacing" textLength="19.4429" x="25" y="330.2935">alt</text><text fill="#000000" font-family="sans-serif" font-size="11" font-weight="bold" lengthAdjust="spacing" textLength="206.8193" x="89.4429" y="329.437">[Feature-aanvraag goedgekeurd]</text><g class="message" data-participant-1="Gebruiker" data-participant-2="Ontwikkelingspartij"><polygon fill="#181818" points="770.811,351.4922,780.811,355.4922,770.811,359.4922,774.811,355.4922" style="stroke:#181818;stroke-width:1;"/><line style="stroke:#181818;stroke-width:1;" x1="67.6719" x2="776.811" y1="355.4922" y2="355.4922"/><text fill="#000000" font-family="sans-serif" font-size="13" lengthAdjust="spacing" textLength="164.5757" x="74.6719" y="350.4263">Zoekt ontwikkelingspartij</text></g><path d="M787,368.4922 L787,408.4922 L1317,408.4922 L1317,378.4922 L1307,368.4922 L787,368.4922" fill="#FEFFDD" style="stroke:#181818;stroke-width:0.5;"/><path d="M1307,368.4922 L1307,378.4922 L1317,378.4922 L1307,368.4922" fill="#FEFFDD" style="stroke:#181818;stroke-width:0.5;"/><text fill="#000000" font-family="sans-serif" font-size="13" lengthAdjust="spacing" textLength="505.2798" x="793" y="385.5591">De Ontwikkelingspartij kan ook de beheerderspartij zijn als de Product Owner</text><text fill="#000000" font-family="sans-serif" font-size="13" lengthAdjust="spacing" textLength="505.9653" x="793" y="400.6919">de feature dusdanig intressant vind dat er vanuit OC budget wordt gecreeerd</text><g class="message" data-participant-1="Ontwikkelingspartij" data-participant-2="Ontwikkelingspartij"><line style="stroke:#181818;stroke-width:1;" x1="782.811" x2="824.811" y1="434.8906" y2="434.8906"/><line style="stroke:#181818;stroke-width:1;" x1="824.811" x2="824.811" y1="434.8906" y2="447.8906"/><line style="stroke:#181818;stroke-width:1;" x1="783.811" x2="824.811" y1="447.8906" y2="447.8906"/><polygon fill="#181818" points="793.811,443.8906,783.811,447.8906,793.811,451.8906,789.811,447.8906" style="stroke:#181818;stroke-width:1;"/><text fill="#000000" font-family="sans-serif" font-size="13" lengthAdjust="spacing" textLength="120.2563" x="789.811" y="429.8247">Forkt de codebase</text></g><g class="message" data-participant-1="Ontwikkelingspartij" data-participant-2="Ontwikkelingspartij"><line style="stroke:#181818;stroke-width:1;" x1="782.811" x2="824.811" y1="477.0234" y2="477.0234"/><line style="stroke:#181818;stroke-width:1;" x1="824.811" x2="824.811" y1="477.0234" y2="490.0234"/><line style="stroke:#181818;stroke-width:1;" x1="783.811" x2="824.811" y1="490.0234" y2="490.0234"/><polygon fill="#181818" points="793.811,486.0234,783.811,490.0234,793.811,494.0234,789.811,490.0234" style="stroke:#181818;stroke-width:1;"/><text fill="#000000" font-family="sans-serif" font-size="13" lengthAdjust="spacing" textLength="182.8315" x="789.811" y="471.9575">Bouwt de feature op de fork</text></g><g class="message" data-participant-1="Ontwikkelingspartij" data-participant-2="Beheerderspartij"><polygon fill="#181818" points="1111.9146,515.1563,1121.9146,519.1563,1111.9146,523.1563,1115.9146,519.1563" style="stroke:#181818;stroke-width:1;"/><line style="stroke:#181818;stroke-width:1;" x1="782.811" x2="1117.9146" y1="519.1563" y2="519.1563"/><text fill="#000000" font-family="sans-serif" font-size="13" lengthAdjust="spacing" textLength="317.1035" x="789.811" y="514.0903">Maakt PR met verwijzing naar het issue-nummer</text></g><path d="M1128,532.1563 L1128,557.1563 L1578,557.1563 L1578,542.1563 L1568,532.1563 L1128,532.1563" fill="#FEFFDD" style="stroke:#181818;stroke-width:0.5;"/><path d="M1568,532.1563 L1568,542.1563 L1578,542.1563 L1568,532.1563" fill="#FEFFDD" style="stroke:#181818;stroke-width:0.5;"/><text fill="#000000" font-family="sans-serif" font-size="13" lengthAdjust="spacing" textLength="429.5269" x="1134" y="549.2231">Code wordt bij voorkeur terug geleverd aan de centrale codebase</text><g class="message" data-participant-1="Beheerderspartij" data-participant-2="Beheerderspartij"><line style="stroke:#181818;stroke-width:1;" x1="1123.9146" x2="1165.9146" y1="583.4219" y2="583.4219"/><line style="stroke:#181818;stroke-width:1;" x1="1165.9146" x2="1165.9146" y1="583.4219" y2="596.4219"/><line style="stroke:#181818;stroke-width:1;" x1="1124.9146" x2="1165.9146" y1="596.4219" y2="596.4219"/><polygon fill="#181818" points="1134.9146,592.4219,1124.9146,596.4219,1134.9146,600.4219,1130.9146,596.4219" style="stroke:#181818;stroke-width:1;"/><text fill="#000000" font-family="sans-serif" font-size="13" lengthAdjust="spacing" textLength="365.0664" x="1130.9146" y="578.356">Beoordeelt code op basis van issue en codeerstandaard</text></g><path d="M1128,609.4219 L1128,664.4219 L1432,664.4219 L1432,619.4219 L1422,609.4219 L1128,609.4219" fill="#FEFFDD" style="stroke:#181818;stroke-width:0.5;"/><path d="M1422,609.4219 L1422,619.4219 L1432,619.4219 L1422,609.4219" fill="#FEFFDD" style="stroke:#181818;stroke-width:0.5;"/><text fill="#000000" font-family="sans-serif" font-size="13" lengthAdjust="spacing" textLength="248.1807" x="1134" y="626.4888">De beheerderspartij mag de PR alleen</text><text fill="#000000" font-family="sans-serif" font-size="13" lengthAdjust="spacing" textLength="283.1436" x="1134" y="641.6216">beoordelen op basis van het goedgekeurde</text><text fill="#000000" font-family="sans-serif" font-size="13" lengthAdjust="spacing" textLength="192.9624" x="1134" y="656.7544">issue en de codeerstandaard.</text><path d="M20,676.8203 L84.4429,676.8203 L84.4429,683.9531 L74.4429,693.9531 L20,693.9531 L20,676.8203" fill="#EEEEEE" style="stroke:#000000;stroke-width:1.5;"/><rect fill="none" height="104.5313" style="stroke:#000000;stroke-width:1.5;" width="1162.1992" x="20" y="676.8203"/><text fill="#000000" font-family="sans-serif" font-size="13" font-weight="bold" lengthAdjust="spacing" textLength="19.4429" x="35" y="689.8872">alt</text><text fill="#000000" font-family="sans-serif" font-size="11" font-weight="bold" lengthAdjust="spacing" textLength="97.2759" x="99.4429" y="689.0308">[PR afgewezen]</text><g class="message" data-participant-1="Gebruiker" data-participant-2="ProductSturingGroep"><polygon fill="#181818" points="644.9404,711.0859,654.9404,715.0859,644.9404,719.0859,648.9404,715.0859" style="stroke:#181818;stroke-width:1;"/><line style="stroke:#181818;stroke-width:1;" x1="67.6719" x2="650.9404" y1="715.0859" y2="715.0859"/><text fill="#000000" font-family="sans-serif" font-size="13" lengthAdjust="spacing" textLength="232.2227" x="74.6719" y="710.02">Vraagt om de beslissing te overrule</text></g><g class="message" data-participant-1="ProductSturingGroep" data-participant-2="Beheerderspartij"><polygon fill="#181818" points="1111.9146,740.2188,1121.9146,744.2188,1111.9146,748.2188,1115.9146,744.2188" style="stroke:#181818;stroke-width:1;"/><line style="stroke:#181818;stroke-width:1;" x1="656.9404" x2="1117.9146" y1="744.2188" y2="744.2188"/><text fill="#000000" font-family="sans-serif" font-size="13" lengthAdjust="spacing" textLength="124.2236" x="663.9404" y="739.1528">Bespreekt overrule</text></g><g class="message" data-participant-1="ProductSturingGroep" data-participant-2="Gebruiker"><polygon fill="#181818" points="78.6719,769.3516,68.6719,773.3516,78.6719,777.3516,74.6719,773.3516" style="stroke:#181818;stroke-width:1;"/><line style="stroke:#181818;stroke-width:1;" x1="72.6719" x2="655.9404" y1="773.3516" y2="773.3516"/><text fill="#000000" font-family="sans-serif" font-size="13" lengthAdjust="spacing" textLength="328.7007" x="84.6719" y="768.2856">Informeert beslissing (goedgekeurd of afgewezen)</text></g><!--SRC=[jLJ1Rjim3BtxAuYUjaFs0Jdia1RDXc58q04xx4P7ZAFObW9Aie5y_IZPCPpOwLeCrKqI-VJuz4ZSUSkmffo3BeapJFijMnLsVjCQOa073_q1f9E7wwXVFh0snPejdLAm70J1ZFjBwCRuLfSbLHBeJiXU7rFe4pLKsLDDniCs7LyoLdGWOaKy3kyEXyXiu0sBhrUab_0JiVIm9nHsj40q3ICMq6Y4jVRVGWxQkK3PLQaJb1yKU0QbiAJ0xW7ta_o1qXA-cxtbMWXxoCbLyfvK3vzYSa6b8FSO1RLq9lCvox3oy7pxs12GWQovaiS_i8JVCSk3A6jy8Ah0rg1eJC4Js8QOGqK9S-uZ9rAio9sOI4HzI-x_o416tP5Yb3CLOyPZI_XZ4-FfLSetLgHWNHnyfB2v4nNN4yrwk4G3rfQTlZU6FUkZ0QnSlBpg7nXGvQRt5gZW51fTW3QUoJcKZcYqKQ1G_fAXGHEq03n27aG33wrbvQ6WdNmAzNg8SgccBEtc2D_JwTcow2HyTbPHZexUZR2oeVNZYkmfxGJuDQpRFhzqxlO5QgbIhDRgupawnY0o7EGiDUx2XBgMWJNznbl4Jkr7gQlNB9UN6okyn4VI2np4M5H9luWJnMf91UaTnkf6Za7Uk9aCgDbYLYGFAUb2dw2YA0AdNVpFhX11JLUIvD4eAL9bRwwgS-R4UhNqIdJTY_Yledvon9LtT2fvyuf9b7NKN3Ga31HxQunOVfcnNEpQ-EhLo7hNsFhdi7fbwCp9FpkqFcXmzNh40VON]--></g></svg>